<?xml version="1.0" encoding="UTF-8" standalone="no"?>
<svg
   id="Layer_1"
   viewBox="0 0 18.000001 13.628698"
   version="1.1"
   sodipodi:docname="veracode-logo.svg"
   width="18"
   height="13.628697"
   inkscape:version="1.2.2 (732a01da63, 2022-12-09)"
   xmlns:inkscape="http://www.inkscape.org/namespaces/inkscape"
   xmlns:sodipodi="http://sodipodi.sourceforge.net/DTD/sodipodi-0.dtd"
   xmlns="http://www.w3.org/2000/svg"
   xmlns:svg="http://www.w3.org/2000/svg">
  <defs
     id="defs227" />
  <style
     id="style219">.st0{fill:#00a3df}.st1{fill:#231f20}</style>
  <path
     class="st0"
     d="M 6.8317984,0 C 3.0625303,0 0,3.0538051 0,6.814348 c 0,3.760544 3.0625303,6.814349 6.8317984,6.814349 3.7692676,0 6.8317986,-3.04508 6.8317986,-6.7881735 C 13.663597,3.0101794 10.662143,0 6.8317984,0 Z m 0,11.002425 c -2.8007756,0 -4.0571983,-2.4517704 -4.0571983,-4.188077 0,-1.7363063 1.2564227,-4.1880756 4.0571983,-4.1880756 2.9491032,0 4.0571986,2.600097 4.0571986,4.2404266 0,1.7188563 -1.2564231,4.135726 -4.0571986,4.135726 z M 15.2254,13.401843 V 2.8618517 H 13.148812 V 0.2268541 H 18 V 13.393118 h -2.7746 z"
     id="zero-one"
     style="stroke-width:0.0872516" />
</svg>
